<?xml version="1.0" encoding="utf-8"?>
<!-- Generator: Adobe Illustrator 19.1.0, SVG Export Plug-In . SVG Version: 6.00 Build 0)  -->
<svg version="1.1" id="Layer_1" xmlns="http://www.w3.org/2000/svg" xmlns:xlink="http://www.w3.org/1999/xlink" x="0px" y="0px"
	 viewBox="65 -456 210 65" style="enable-background:new 65 -456 210 65;" xml:space="preserve">
<style type="text/css">
	.st0{fill:none;stroke:#FFFFFF;stroke-width:13.2077;stroke-linecap:round;stroke-linejoin:round;stroke-miterlimit:10;}
	.st1{fill:#E45151;}
	.st2{fill:none;stroke:#FFFFFF;stroke-width:14.0267;stroke-linecap:round;stroke-miterlimit:10;}
	.st3{fill:none;stroke:#FFFFFF;stroke-width:55.4771;stroke-linecap:round;stroke-linejoin:round;stroke-miterlimit:10;}
	.st4{fill:none;stroke:#FFFFFF;stroke-width:58.9173;stroke-linecap:round;stroke-miterlimit:10;}
	.st5{fill:none;stroke:#FFFFFF;stroke-width:11.0388;stroke-linecap:round;stroke-linejoin:round;stroke-miterlimit:10;}
	.st6{fill:none;stroke:#FFFFFF;stroke-width:11.7233;stroke-linecap:round;stroke-miterlimit:10;}
</style>
<g>
	<g>
		<path class="st0" d="M221.7,303.7h-22.9c-7.7,0-14,6.8-14,15.2v0c0,8.4,6.3,15.2,14,15.2h12.2c7.7,0,14,6.8,14,15.2v0
			c0,8.4-6.3,15.2-14,15.2h-23.4"/>
		<path class="st0" d="M118.2,363.4v-43.7c0-8.3,5.7-15.1,12.8-15.1h16.8c7.1,0,12.8,6.8,12.8,15.1v43.7"/>
		<line class="st0" x1="118.2" y1="348.3" x2="160.6" y2="348.3"/>
		<circle class="st1" cx="139.4" cy="327.1" r="6.9"/>
		<g>
			<path class="st2" d="M287.3,304.6h-26.1c-6.6,0-11.9,6.3-11.9,14v30.8c0,7.7,5.3,14,11.9,14h26.1"/>
			<line class="st2" x1="249.3" y1="334" x2="287.3" y2="334"/>
		</g>
		<path class="st2" d="M93.9,304.6H79.5C65.4,304.6,54,316,54,330.1v7.8c0,14.1,11.4,25.5,25.5,25.5h14.4"/>
	</g>
</g>
<g>
	<g>
		<path class="st0" d="M221.7,606.3h-22.9c-7.7,0-14,6.8-14,15.2v0c0,8.4,6.3,15.2,14,15.2h12.2c7.7,0,14,6.8,14,15.2l0,0
			c0,8.4-6.3,15.2-14,15.2h-23.4"/>
		<path class="st0" d="M118.2,666v-43.7c0-8.3,5.7-15.1,12.8-15.1h16.8c7.1,0,12.8,6.8,12.8,15.1V666"/>
		<line class="st0" x1="118.2" y1="650.9" x2="160.6" y2="650.9"/>
		<circle class="st1" cx="139.4" cy="629.7" r="6.9"/>
		<g>
			<path class="st2" d="M287.3,607.2h-26.1c-6.6,0-11.9,6.3-11.9,14V652c0,7.7,5.3,14,11.9,14h26.1"/>
			<line class="st2" x1="249.3" y1="636.6" x2="287.3" y2="636.6"/>
		</g>
		<path class="st2" d="M93.9,607.2H79.5c-14.1,0-25.5,11.4-25.5,25.5v7.8c0,14.1,11.4,25.5,25.5,25.5h14.4"/>
	</g>
</g>
<g>
	<g>
		<path class="st3" d="M384.6-186.4h-96c-32.4,0-58.7,28.5-58.7,63.7v0c0,35.2,26.3,63.7,58.7,63.7h51.3c32.4,0,58.7,28.5,58.7,63.7
			v0c0,35.2-26.3,63.7-58.7,63.7h-98.3"/>
		<path class="st3" d="M-50.3,64.4v-183.4c0-35.1,24.1-63.5,53.8-63.5h70.6c29.7,0,53.8,28.4,53.8,63.5V64.4"/>
		<line class="st3" x1="-50.3" y1="1.2" x2="127.9" y2="1.2"/>
		<circle class="st1" cx="38.8" cy="-87.8" r="28.8"/>
		<g>
			<path class="st4" d="M660-182.4H550.5c-27.5,0-49.9,26.3-49.9,58.8V5.6c0,32.5,22.3,58.8,49.9,58.8H660"/>
			<line class="st4" x1="500.6" y1="-59" x2="660" y2="-59"/>
		</g>
		<path class="st4" d="M-152.2-182.4h-60.6c-59.2,0-107.1,48-107.1,107.1v32.6c0,59.2,48,107.1,107.1,107.1h60.6"/>
	</g>
</g>
<g>
	<g>
		<path class="st5" d="M212.7-448.8h-19.1c-6.5,0-11.7,5.7-11.7,12.7v0c0,7,5.2,12.7,11.7,12.7h10.2c6.5,0,11.7,5.7,11.7,12.7v0
			c0,7-5.2,12.7-11.7,12.7h-19.6"/>
		<path class="st5" d="M126.2-398.9v-36.5c0-7,4.8-12.6,10.7-12.6h14c5.9,0,10.7,5.7,10.7,12.6v36.5"/>
		<line class="st5" x1="126.2" y1="-411.5" x2="161.6" y2="-411.5"/>
		<circle class="st1" cx="143.9" cy="-429.2" r="5.7"/>
		<g>
			<path class="st6" d="M267.5-448h-21.8c-5.5,0-9.9,5.2-9.9,11.7v25.7c0,6.5,4.4,11.7,9.9,11.7h21.8"/>
			<line class="st6" x1="235.8" y1="-423.5" x2="267.5" y2="-423.5"/>
		</g>
		<path class="st6" d="M105.9-448H93.8c-11.8,0-21.3,9.5-21.3,21.3v6.5c0,11.8,9.5,21.3,21.3,21.3h12.1"/>
	</g>
</g>
</svg>
