<?xml version="1.0" encoding="utf-8"?>
<!-- Generator: Adobe Illustrator 19.1.0, SVG Export Plug-In . SVG Version: 6.00 Build 0)  -->
<svg version="1.1" id="Layer_1" xmlns="http://www.w3.org/2000/svg" xmlns:xlink="http://www.w3.org/1999/xlink" x="0px" y="0px"
	 viewBox="-8 272 357.2 124" style="enable-background:new -8 272 357.2 124;" xml:space="preserve">
<style type="text/css">
	.st0{fill:none;stroke:#FFFFFF;stroke-width:13.2077;stroke-linecap:round;stroke-linejoin:round;stroke-miterlimit:10;}
	.st1{fill:#E45151;}
	.st2{fill:none;stroke:#FFFFFF;stroke-width:14.0267;stroke-linecap:round;stroke-miterlimit:10;}
</style>
<g>
	<g>
		<path class="st0" d="M221.7,303.7h-22.9c-7.7,0-14,6.8-14,15.2v0c0,8.4,6.3,15.2,14,15.2h12.2c7.7,0,14,6.8,14,15.2v0
			c0,8.4-6.3,15.2-14,15.2h-23.4"/>
		<path class="st0" d="M118.2,363.4v-43.7c0-8.3,5.7-15.1,12.8-15.1h16.8c7.1,0,12.8,6.8,12.8,15.1v43.7"/>
		<line class="st0" x1="118.2" y1="348.3" x2="160.6" y2="348.3"/>
		<circle class="st1" cx="139.4" cy="327.1" r="6.9"/>
		<g>
			<path class="st2" d="M287.3,304.6h-26.1c-6.6,0-11.9,6.3-11.9,14v30.8c0,7.7,5.3,14,11.9,14h26.1"/>
			<line class="st2" x1="249.3" y1="334" x2="287.3" y2="334"/>
		</g>
		<path class="st2" d="M93.9,304.6H79.5C65.4,304.6,54,316,54,330.1v7.8c0,14.1,11.4,25.5,25.5,25.5h14.4"/>
	</g>
</g>
</svg>
